<?xml version="1.0" standalone="no"?>
<!DOCTYPE svg PUBLIC "-//W3C//DTD SVG 20010904//EN"
 "http://www.w3.org/TR/2001/REC-SVG-20010904/DTD/svg10.dtd">
<svg version="1.0" xmlns="http://www.w3.org/2000/svg"
 width="894.000000pt" height="623.000000pt" viewBox="0 0 894.000000 623.000000"
 preserveAspectRatio="xMidYMid meet">

<g transform="translate(0.000000,623.000000) scale(0.100000,-0.100000)"
fill="#000000" stroke="none">
<path d="M7035 5413 c-16 -2 -95 -15 -175 -29 -1047 -179 -2094 -709 -3130
-1584 -68 -58 -132 -112 -140 -120 -9 -8 -54 -49 -101 -90 -261 -232 -640
-618 -930 -945 -292 -331 -736 -905 -939 -1215 -6 -8 -26 -40 -45 -70 l-35
-55 187 -3 c132 -2 189 1 192 9 6 19 833 1119 841 1119 8 0 819 -1080 834
-1111 9 -18 31 -19 518 -19 l509 0 -258 343 c-142 188 -263 349 -270 357 -7 8
-57 76 -113 150 -55 74 -106 142 -113 150 -6 8 -37 49 -67 90 -30 41 -57 77
-60 80 -9 8 -430 569 -430 573 0 2 35 40 78 83 42 43 145 151 227 238 247 261
536 521 800 716 33 25 62 47 65 50 10 10 121 86 285 195 584 388 1317 738
2134 1021 102 36 187 66 189 69 5 5 -1 5 -53 -2z"/>
<path d="M882 4763 c8 -10 45 -56 82 -103 37 -47 84 -105 104 -129 20 -25 53
-65 72 -90 19 -25 56 -73 83 -106 56 -69 60 -75 107 -135 19 -25 55 -70 81
-100 25 -30 66 -82 92 -115 25 -33 71 -91 103 -130 31 -38 66 -82 78 -97 11
-15 70 -87 130 -161 l109 -134 156 157 c86 86 213 203 284 259 70 57 127 105
127 108 0 7 -30 47 -228 300 -9 12 -69 90 -132 173 -63 84 -145 189 -181 234
l-65 81 -509 3 c-484 2 -508 1 -493 -15z"/>
<path d="M556 1031 c-7 -10 -86 -360 -86 -378 0 -10 39 -13 164 -13 l164 0 6
31 c12 61 15 59 -104 59 l-110 0 6 28 c4 15 9 30 11 35 2 4 47 7 98 7 102 0
104 1 119 63 l6 27 -100 0 c-55 0 -100 3 -100 8 0 4 3 17 6 30 6 21 11 22 110
22 l103 0 7 34 c3 19 3 39 -1 45 -8 13 -291 15 -299 2z"/>
<path d="M924 1032 c-6 -4 -23 -65 -38 -137 -15 -71 -33 -156 -40 -187 -8 -31
-11 -59 -8 -62 8 -9 290 -7 296 2 2 4 7 24 11 45 l7 37 -96 0 c-53 0 -96 3
-96 6 0 3 14 68 31 145 16 76 27 144 24 149 -7 12 -75 13 -91 2z"/>
<path d="M1247 1033 c-3 -5 -22 -84 -42 -178 -21 -93 -40 -180 -42 -193 -5
-22 -3 -23 48 -20 l53 3 29 125 c49 219 56 253 51 262 -6 10 -91 11 -97 1z"/>
<path d="M1376 1032 c-2 -4 -7 -24 -11 -45 l-7 -37 56 0 c31 0 56 -3 56 -6 0
-3 -11 -54 -25 -112 -14 -58 -28 -125 -32 -149 l-6 -43 51 0 51 0 16 78 c10
42 25 111 34 152 l17 75 56 3 c56 3 56 3 66 42 5 21 7 42 4 45 -8 8 -320 6
-326 -3z"/>
<path d="M1736 1031 c-6 -10 -86 -364 -86 -381 0 -12 316 -15 324 -2 2 4 7 24
11 45 l7 37 -110 0 -109 0 6 33 7 32 101 3 c101 3 101 3 107 30 4 15 9 35 12
45 5 15 -4 17 -95 17 -105 0 -111 3 -95 44 5 13 24 16 110 16 l103 0 7 34 c3
19 3 39 -1 45 -8 14 -291 15 -299 2z"/>
<path d="M5184 880 c-78 -31 -87 -160 -14 -203 64 -38 133 -6 150 68 8 33 5
48 -12 83 -27 56 -70 74 -124 52z m91 -35 c37 -36 32 -130 -9 -157 -6 -4 -27
-8 -47 -8 -52 0 -74 28 -74 97 0 45 4 58 24 74 32 26 77 24 106 -6z"/>
<path d="M8233 878 c-12 -6 -24 -20 -27 -31 -9 -35 19 -64 79 -81 46 -14 55
-20 55 -39 0 -33 -19 -47 -61 -47 -29 0 -42 6 -58 28 -15 20 -20 23 -21 10 0
-29 40 -58 82 -58 48 0 81 30 76 68 -3 27 -28 45 -105 73 -55 19 -38 69 23 69
22 0 38 -7 48 -22 17 -23 32 -19 22 7 -11 30 -72 43 -113 23z"/>
<path d="M4896 868 c4 -7 21 -33 37 -57 22 -32 30 -56 31 -92 1 -66 26 -68 26
-2 0 39 7 57 41 105 29 42 36 58 25 58 -9 0 -16 -4 -16 -8 0 -5 -14 -28 -31
-52 l-31 -42 -34 51 c-19 28 -39 51 -45 51 -6 0 -7 -6 -3 -12z"/>
<path d="M5380 818 c0 -79 15 -135 40 -148 33 -18 79 -12 105 15 23 22 25 32
25 110 0 50 -4 85 -10 85 -6 0 -10 -34 -10 -81 0 -101 -9 -119 -58 -119 -55 0
-62 12 -62 112 0 72 -3 88 -15 88 -12 0 -15 -14 -15 -62z"/>
<path d="M5620 775 c0 -105 16 -148 22 -57 3 43 5 47 30 50 28 3 59 -22 101
-83 11 -14 22 -24 25 -21 3 4 -9 27 -27 52 -18 26 -31 47 -29 49 2 1 13 8 26
14 15 8 22 21 22 41 0 47 -22 60 -101 60 l-69 0 0 -105z m147 58 c8 -36 -20
-55 -77 -51 -41 3 -45 5 -48 31 -6 47 1 52 62 49 51 -4 57 -6 63 -29z"/>
<path d="M5945 869 c4 -6 21 -9 38 -7 l32 3 3 -97 c4 -127 22 -129 22 -3 0 99
1 102 47 96 6 -1 14 3 18 9 4 6 -24 10 -80 10 -58 0 -84 -3 -80 -11z"/>
<path d="M6160 776 c0 -95 9 -130 23 -93 11 28 2 190 -10 194 -10 4 -13 -21
-13 -101z"/>
<path d="M6260 775 c0 -133 18 -140 22 -7 l3 97 31 -95 c18 -59 35 -95 44 -95
8 0 25 36 44 90 32 95 34 94 38 -23 4 -110 23 -84 23 33 0 92 -1 100 -19 100
-16 0 -26 -19 -52 -95 -18 -53 -34 -88 -38 -80 -3 8 -17 52 -31 98 -21 65 -30
82 -46 82 -18 0 -19 -8 -19 -105z"/>
<path d="M6537 873 c-4 -3 -7 -50 -7 -104 0 -92 1 -97 23 -103 36 -9 125 -7
132 4 4 6 -18 10 -59 10 l-66 0 0 45 0 45 60 0 c33 0 60 4 60 10 0 6 -27 10
-60 10 l-60 0 0 35 c0 38 0 38 71 35 26 -1 50 3 54 9 7 12 -137 16 -148 4z"/>
<path d="M6860 775 c0 -133 18 -140 22 -7 l3 97 31 -95 c18 -57 36 -95 44 -95
8 0 27 39 46 95 l33 95 0 -97 c1 -81 4 -98 16 -98 13 0 15 16 13 103 -3 93 -5
102 -22 102 -15 0 -26 -19 -51 -94 l-31 -95 -16 40 c-8 21 -23 65 -32 97 -13
44 -21 57 -36 57 -19 0 -20 -7 -20 -105z"/>
<path d="M7154 775 c-26 -66 -37 -105 -29 -105 7 0 16 14 21 31 5 17 12 30 17
30 4 -1 26 -1 50 -1 40 0 45 -3 62 -37 10 -21 20 -33 22 -27 6 18 -73 209 -88
212 -9 1 -28 -34 -55 -103z m70 52 c32 -77 31 -77 -13 -77 -23 0 -41 3 -41 8
0 10 33 102 37 102 1 0 9 -15 17 -33z"/>
<path d="M7315 869 c4 -6 21 -9 37 -7 l31 3 0 -97 c-1 -77 2 -98 13 -98 11 0
14 22 14 100 l0 100 29 -5 c17 -3 33 -1 36 5 4 6 -25 10 -80 10 -58 0 -84 -3
-80 -11z"/>
<path d="M7520 869 c0 -8 12 -10 35 -6 l35 6 0 -100 c0 -129 18 -130 22 -1 l3
97 32 -3 c17 -2 34 1 38 7 4 8 -21 11 -79 11 -57 0 -86 -4 -86 -11z"/>
<path d="M7740 776 c0 -119 -2 -116 90 -116 84 0 86 18 3 22 l-68 3 -3 43 -3
42 60 0 c33 0 63 5 66 10 4 6 -18 10 -60 10 l-66 0 3 37 3 37 61 -3 c36 -1 65
2 69 8 4 8 -20 11 -74 11 l-81 0 0 -104z"/>
<path d="M7960 775 c0 -63 4 -105 10 -105 6 0 10 19 10 43 0 24 2 46 5 48 2 3
20 3 40 1 26 -3 39 -11 49 -31 18 -32 56 -74 63 -67 3 2 -9 25 -27 51 l-32 46
26 20 c30 23 33 45 10 77 -13 19 -24 22 -85 22 l-69 0 0 -105z m146 58 c9 -34
-7 -46 -71 -51 l-55 -4 0 39 c0 22 2 42 4 44 2 2 29 2 60 1 50 -3 57 -7 62
-29z"/>
</g>
</svg>
